<svg class="hidden" id="nix_logo" version="1.2" width="100%" height="100%" viewBox="0 0 14159 12281" preserveAspectRatio="xMidYMid" fill-rule="evenodd" stroke-width="28.222" stroke-linejoin="round" xmlns="http://www.w3.org/2000/svg" xmlns:ooo="http://xml.openoffice.org/svg/export" xmlns:xlink="http://www.w3.org/1999/xlink" xmlns:presentation="http://sun.com/xmlns/staroffice/presentation" xmlns:smil="http://www.w3.org/2001/SMIL20/" xmlns:anim="urn:oasis:names:tc:opendocument:xmlns:animation:1.0" xmlns:svg="urn:oasis:names:tc:opendocument:xmlns:svg-compatible:1.0" xml:space="preserve">
 <defs class="ClipPathGroup">
  <clipPath id="presentation_clip_path" clipPathUnits="userSpaceOnUse">
   <rect x="0" y="0" width="14159" height="12281" class="svg-elem-1"></rect>
  </clipPath>
  <clipPath id="presentation_clip_path_shrink" clipPathUnits="userSpaceOnUse">
   <rect x="14" y="12" width="14131" height="12257" class="svg-elem-2"></rect>
  </clipPath>
 </defs>
 <defs class="TextShapeIndex">
  <g ooo:slide="id1" ooo:id-list="id3 id4 id5 id6 id7 id8 id9"></g>
 </defs>
 <defs class="EmbeddedBulletChars">
  <g id="bullet-char-template-57356" transform="scale(0.00048828125,-0.00048828125)">
   <path d="M 580,1141 L 1163,571 580,0 -4,571 580,1141 Z" class="svg-elem-3"></path>
  </g>
  <g id="bullet-char-template-57354" transform="scale(0.00048828125,-0.00048828125)">
   <path d="M 8,1128 L 1137,1128 1137,0 8,0 8,1128 Z" class="svg-elem-4"></path>
  </g>
  <g id="bullet-char-template-10146" transform="scale(0.00048828125,-0.00048828125)">
   <path d="M 174,0 L 602,739 174,1481 1456,739 174,0 Z M 1358,739 L 309,1346 659,739 1358,739 Z" class="svg-elem-5"></path>
  </g>
  <g id="bullet-char-template-10132" transform="scale(0.00048828125,-0.00048828125)">
   <path d="M 2015,739 L 1276,0 717,0 1260,543 174,543 174,936 1260,936 717,1481 1274,1481 2015,739 Z" class="svg-elem-6"></path>
  </g>
  <g id="bullet-char-template-10007" transform="scale(0.00048828125,-0.00048828125)">
   <path d="M 0,-2 C -7,14 -16,27 -25,37 L 356,567 C 262,823 215,952 215,954 215,979 228,992 255,992 264,992 276,990 289,987 310,991 331,999 354,1012 L 381,999 492,748 772,1049 836,1024 860,1049 C 881,1039 901,1025 922,1006 886,937 835,863 770,784 769,783 710,716 594,584 L 774,223 C 774,196 753,168 711,139 L 727,119 C 717,90 699,76 672,76 641,76 570,178 457,381 L 164,-76 C 142,-110 111,-127 72,-127 30,-127 9,-110 8,-76 1,-67 -2,-52 -2,-32 -2,-23 -1,-13 0,-2 Z" class="svg-elem-7"></path>
  </g>
  <g id="bullet-char-template-10004" transform="scale(0.00048828125,-0.00048828125)">
   <path d="M 285,-33 C 182,-33 111,30 74,156 52,228 41,333 41,471 41,549 55,616 82,672 116,743 169,778 240,778 293,778 328,747 346,684 L 369,508 C 377,444 397,411 428,410 L 1163,1116 C 1174,1127 1196,1133 1229,1133 1271,1133 1292,1118 1292,1087 L 1292,965 C 1292,929 1282,901 1262,881 L 442,47 C 390,-6 338,-33 285,-33 Z" class="svg-elem-8"></path>
  </g>
  <g id="bullet-char-template-9679" transform="scale(0.00048828125,-0.00048828125)">
   <path d="M 813,0 C 632,0 489,54 383,161 276,268 223,411 223,592 223,773 276,916 383,1023 489,1130 632,1184 813,1184 992,1184 1136,1130 1245,1023 1353,916 1407,772 1407,592 1407,412 1353,268 1245,161 1136,54 992,0 813,0 Z" class="svg-elem-9"></path>
  </g>
  <g id="bullet-char-template-8226" transform="scale(0.00048828125,-0.00048828125)">
   <path d="M 346,457 C 273,457 209,483 155,535 101,586 74,649 74,723 74,796 101,859 155,911 209,963 273,989 346,989 419,989 480,963 531,910 582,859 608,796 608,723 608,648 583,586 532,535 482,483 420,457 346,457 Z" class="svg-elem-10"></path>
  </g>
  <g id="bullet-char-template-8211" transform="scale(0.00048828125,-0.00048828125)">
   <path d="M -4,459 L 1135,459 1135,606 -4,606 -4,459 Z" class="svg-elem-11"></path>
  </g>
  <g id="bullet-char-template-61548" transform="scale(0.00048828125,-0.00048828125)">
   <path d="M 173,740 C 173,903 231,1043 346,1159 462,1274 601,1332 765,1332 928,1332 1067,1274 1183,1159 1299,1043 1357,903 1357,740 1357,577 1299,437 1183,322 1067,206 928,148 765,148 601,148 462,206 346,322 231,437 173,577 173,740 Z" class="svg-elem-12"></path>
  </g>
 </defs>
 <g>
  <g id="id2" class="Master_Slide">
   <g id="bg-id2" class="Background"></g>
   <g id="bo-id2" class="BackgroundObjects"></g>
  </g>
 </g>
 <g class="SlideGroup">
  <g>
   <g id="container-id1">
    <g id="id1" class="Slide" clip-path="url(#presentation_clip_path)">
     <g class="Page">
      <g class="com.sun.star.drawing.PolyPolygonShape">
       <g id="id3">
        <rect class="BoundingBox svg-elem-13" stroke="none" fill="none" x="6453" y="542" width="4269" height="5457"></rect>
        <path fill="rgb(114,159,207)" stroke="none" d="M 6454,543 L 9636,5997 9636,5984 10354,4730 9505,3247 10720,1170 10335,543 9642,543 8773,1999 7924,543 6454,543 Z M 7924,543 L 7924,543 Z M 7924,543 L 7924,543 Z" class="svg-elem-14"></path>
        <path fill="none" stroke="rgb(52,101,164)" d="M 6454,543 L 9636,5997 9636,5984 10354,4730 9505,3247 10720,1170 10335,543 9642,543 8773,1999 7924,543 6454,543 Z" class="svg-elem-15"></path>
        <path fill="none" stroke="rgb(52,101,164)" d="M 7924,543 L 7924,543 Z" class="svg-elem-16"></path>
        <path fill="none" stroke="rgb(52,101,164)" d="M 7924,543 L 7924,543 Z" class="svg-elem-17"></path>
       </g>
      </g>
      <g class="com.sun.star.drawing.PolyPolygonShape">
       <g id="id4">
        <rect style="display:none;" class="BoundingBox svg-elem-18" stroke="none" fill="none" x="6453" y="542" width="4269" height="5457"></rect>
        <path fill="rgb(114,159,207)" stroke="none" d="M 6454,543 L 9636,5997 9636,5984 10354,4730 9505,3247 10720,1170 10335,543 9642,543 8773,1999 7924,543 6454,543 Z M 7924,543 L 7924,543 Z M 7924,543 L 7924,543 Z" class="svg-elem-19"></path>
        <path fill="none" stroke="rgb(52,101,164)" d="M 6454,543 L 9636,5997 9636,5984 10354,4730 9505,3247 10720,1170 10335,543 9642,543 8773,1999 7924,543 6454,543 Z" class="svg-elem-20"></path>
        <path fill="none" stroke="rgb(52,101,164)" d="M 7924,543 L 7924,543 Z" class="svg-elem-21"></path>
        <path fill="none" stroke="rgb(52,101,164)" d="M 7924,543 L 7924,543 Z" class="svg-elem-22"></path>
       </g>
      </g>
      <g class="com.sun.star.drawing.PolyPolygonShape">
       <g id="id5">
        <rect class="BoundingBox svg-elem-23" stroke="none" fill="none" x="8542" y="2766" width="5076" height="5485"></rect>
        <path fill="rgb(114,159,207)" stroke="none" d="M 11676,2767 L 8543,8249 8555,8243 10000,8238 10859,6761 13266,6775 13616,6128 13270,5528 11574,5503 12411,4040 11676,2767 Z M 12411,4040 L 12411,4040 Z M 12411,4040 L 12411,4040 Z" class="svg-elem-24"></path>
        <path fill="none" stroke="rgb(52,101,164)" d="M 11676,2767 L 8543,8249 8555,8243 10000,8238 10859,6761 13266,6775 13616,6128 13270,5528 11574,5503 12411,4040 11676,2767 Z" class="svg-elem-25"></path>
        <path fill="none" stroke="rgb(52,101,164)" d="M 12411,4040 L 12411,4040 Z" class="svg-elem-26"></path>
        <path fill="none" stroke="rgb(52,101,164)" d="M 12411,4040 L 12411,4040 Z" class="svg-elem-27"></path>
       </g>
      </g>
      <g class="com.sun.star.drawing.PolyPolygonShape">
       <g id="id6">
        <rect class="BoundingBox svg-elem-28" stroke="none" fill="none" x="5932" y="8356" width="6317" height="3384"></rect>
        <path fill="rgb(114,159,207)" stroke="none" d="M 12247,8357 L 5933,8385 5944,8392 6671,9641 8380,9647 9571,11738 10306,11718 10653,11118 9826,9637 11512,9630 12247,8357 Z M 11512,9630 L 11512,9630 Z M 11512,9630 L 11512,9630 Z" class="svg-elem-29"></path>
        <path fill="none" stroke="rgb(52,101,164)" d="M 12247,8357 L 5933,8385 5944,8392 6671,9641 8380,9647 9571,11738 10306,11718 10653,11118 9826,9637 11512,9630 12247,8357 Z" class="svg-elem-30"></path>
        <path fill="none" stroke="rgb(52,101,164)" d="M 11512,9630 L 11512,9630 Z" class="svg-elem-31"></path>
        <path fill="none" stroke="rgb(52,101,164)" d="M 11512,9630 L 11512,9630 Z" class="svg-elem-32"></path>
       </g>
      </g>
      <g class="com.sun.star.drawing.PolyPolygonShape">
       <g id="id7">
        <rect class="BoundingBox svg-elem-33" stroke="none" fill="none" x="3420" y="6283" width="4269" height="5457"></rect>
        <path fill="rgb(114,159,207)" stroke="none" d="M 7687,11738 L 4505,6284 4505,6297 3787,7551 4636,9034 3421,11111 3806,11738 4499,11738 5368,10282 6217,11738 7687,11738 Z M 6217,11738 L 6217,11738 Z M 6217,11738 L 6217,11738 Z" class="svg-elem-34"></path>
        <path fill="none" stroke="rgb(52,101,164)" d="M 7687,11738 L 4505,6284 4505,6297 3787,7551 4636,9034 3421,11111 3806,11738 4499,11738 5368,10282 6217,11738 7687,11738 Z" class="svg-elem-35"></path>
        <path fill="none" stroke="rgb(52,101,164)" d="M 6217,11738 L 6217,11738 Z" class="svg-elem-36"></path>
        <path fill="none" stroke="rgb(52,101,164)" d="M 6217,11738 L 6217,11738 Z" class="svg-elem-37"></path>
       </g>
      </g>
      <g class="com.sun.star.drawing.PolyPolygonShape">
       <g id="id8">
        <rect class="BoundingBox svg-elem-38" stroke="none" fill="none" x="542" y="4059" width="5076" height="5486"></rect>
        <path fill="rgb(114,159,207)" stroke="none" d="M 2483,9543 L 5616,4060 5604,4067 4159,4072 3300,5549 893,5535 543,6182 889,6782 2585,6806 1748,8270 2483,9543 Z M 1748,8270 L 1748,8270 Z M 1748,8270 L 1748,8270 Z" class="svg-elem-39"></path>
        <path fill="none" stroke="rgb(52,101,164)" d="M 2483,9543 L 5616,4060 5604,4067 4159,4072 3300,5549 893,5535 543,6182 889,6782 2585,6806 1748,8270 2483,9543 Z" class="svg-elem-40"></path>
        <path fill="none" stroke="rgb(52,101,164)" d="M 1748,8270 L 1748,8270 Z" class="svg-elem-41"></path>
        <path fill="none" stroke="rgb(52,101,164)" d="M 1748,8270 L 1748,8270 Z" class="svg-elem-42"></path>
       </g>
      </g>
      <g class="com.sun.star.drawing.PolyPolygonShape">
       <g id="id9">
        <rect class="BoundingBox svg-elem-43" stroke="none" fill="none" x="1821" y="542" width="6318" height="3383"></rect>
        <path fill="rgb(114,159,207)" stroke="none" d="M 1822,3923 L 8137,3895 8125,3888 7398,2639 5689,2633 4498,543 3763,562 3416,1163 4243,2643 2557,2650 1822,3923 Z M 2557,2650 L 2557,2650 Z M 2557,2650 L 2557,2650 Z" class="svg-elem-44"></path>
        <path fill="none" stroke="rgb(52,101,164)" d="M 1822,3923 L 8137,3895 8125,3888 7398,2639 5689,2633 4498,543 3763,562 3416,1163 4243,2643 2557,2650 1822,3923 Z" class="svg-elem-45"></path>
        <path fill="none" stroke="rgb(52,101,164)" d="M 2557,2650 L 2557,2650 Z" class="svg-elem-46"></path>
        <path fill="none" stroke="rgb(52,101,164)" d="M 2557,2650 L 2557,2650 Z" class="svg-elem-47"></path>
       </g>
      </g>
     </g>
    </g>
   </g>
  </g>
 </g>
</svg>
