<svg id="rust_logo" xmlns="http://www.w3.org/2000/svg" xmlns:xlink="http://www.w3.org/1999/xlink" viewBox="0 0 64 64" width="100%" height="100%"><linearGradient id="SVGID_1_" gradientUnits="userSpaceOnUse" x1="32.0663" y1="5.1326" x2="32.0663" y2="59">	<stop offset="0" style="stop-color:#6DC7FF"></stop>	<stop offset="1" style="stop-color:#E6ABFF"></stop></linearGradient><path style="fill: url(&quot;#SVGID_1_&quot;);" d="M56.528,32.066L59,29.414l-2.942-2.12l1.907-3.084l-3.299-1.505l1.269-3.397l-3.529-0.832	l0.582-3.579l-3.624-0.128l-0.128-3.624l-3.579,0.582l-0.832-3.529l-3.397,1.269l-1.505-3.299l-3.084,1.907l-2.12-2.942	l-2.653,2.472l-2.653-2.472l-2.12,2.942L24.21,6.168l-1.505,3.299l-3.397-1.269l-0.832,3.529l-3.579-0.582l-0.128,3.624	l-3.624,0.128l0.582,3.579l-3.529,0.832l1.269,3.397L6.168,24.21l1.907,3.084l-2.942,2.12l2.472,2.653l-2.472,2.653l2.942,2.12	l-1.907,3.084l3.299,1.505l-1.269,3.397l3.529,0.832l-0.582,3.579l3.624,0.128l0.128,3.624l3.579-0.582l0.832,3.529l3.397-1.269	l1.505,3.299l3.084-1.907L29.414,59l2.653-2.472L34.719,59l2.12-2.942l3.084,1.907l1.505-3.299l3.397,1.269l0.832-3.529l3.579,0.582	l0.128-3.624l3.624-0.128l-0.582-3.579l3.529-0.832l-1.269-3.397l3.299-1.505l-1.907-3.084L59,34.719L56.528,32.066z M28.007,11.39	l2.691,2.691c0.756,0.756,1.981,0.756,2.737,0l2.674-2.674c6.246,1.239,11.493,5.247,14.41,10.693l-1.811,3.204	c-0.526,0.931-0.198,2.111,0.733,2.637l3.453,1.952C52.963,30.586,53,31.289,53,32c0,0.675-0.037,1.341-0.1,2H50v1.66	c0,1.845-1.155,3.34-3,3.34c-4,0-0.401-7.47-9-8l0,0c3.314,0,7-2.686,7-6s-3.686-6-7-6h-6h-5h-6h-3h-2.464	C18.593,15.13,22.974,12.36,28.007,11.39z M36,27c0,1.105-0.895,2-2,2h-7v-4h7C35.105,25,36,25.895,36,27z M11.166,29.476	l2.947-1.001c1.012-0.344,1.554-1.443,1.21-2.455L14.637,24H18v15h-5.79C11.431,36.811,11,34.458,11,32	C11,31.144,11.066,30.305,11.166,29.476z M46.262,47.383l-3.749-0.599c-1.055-0.169-2.048,0.55-2.216,1.606l-0.494,3.096	C37.388,52.454,34.76,53,32,53c-2.755,0-5.379-0.545-7.79-1.51l-0.495-3.1c-0.169-1.055-1.161-1.775-2.216-1.606l-3.759,0.6	c-1.098-1.019-2.085-2.155-2.947-3.385H18h9h5v-5h-5v-5h6.166c5.219,1.25,0.755,10,9.834,10h6.207	C48.345,45.229,47.36,46.365,46.262,47.383z" class="svg-elem-1"></path><linearGradient id="SVGID_00000114047403961252073440000015482543274146399894_" gradientUnits="userSpaceOnUse" x1="32.0663" y1="60" x2="32.0663" y2="4.1326">	<stop offset="0" style="stop-color:#C822FF"></stop>	<stop offset="1" style="stop-color:#1A6DFF"></stop></linearGradient><polygon style="fill: none; stroke: url(&quot;#SVGID_00000114047403961252073440000015482543274146399894_&quot;); stroke-width: 2px; stroke-linecap: round; stroke-linejoin: round; stroke-miterlimit: 10;" points="	32.066,7.605 34.719,5.133 36.839,8.075 39.923,6.168 41.427,9.467 44.824,8.198 45.656,11.727 49.236,11.146 49.363,14.769 	52.987,14.897 52.405,18.476 55.935,19.308 54.666,22.705 57.965,24.21 56.058,27.294 59,29.414 56.528,32.066 59,34.719 	56.058,36.839 57.965,39.923 54.666,41.427 55.935,44.824 52.405,45.656 52.987,49.236 49.363,49.363 49.236,52.987 45.656,52.405 	44.824,55.935 41.427,54.666 39.923,57.965 36.839,56.058 34.719,59 32.066,56.528 29.414,59 27.294,56.058 24.21,57.965 	22.705,54.666 19.308,55.935 18.476,52.405 14.897,52.987 14.769,49.363 11.146,49.236 11.727,45.656 8.198,44.824 9.467,41.427 	6.168,39.923 8.075,36.839 5.133,34.719 7.605,32.066 5.133,29.414 8.075,27.294 6.168,24.21 9.467,22.705 8.198,19.308 	11.727,18.476 11.146,14.897 14.769,14.769 14.897,11.146 18.476,11.727 19.308,8.198 22.705,9.467 24.21,6.168 27.294,8.075 	29.414,5.133 " class="svg-elem-2"></polygon><circle style="fill: rgb(255, 255, 255);" cx="12" cy="26" r="1" class="svg-elem-3"></circle><circle style="fill: rgb(255, 255, 255);" cx="32" cy="11" r="1" class="svg-elem-4"></circle><circle style="fill: rgb(255, 255, 255);" cx="21" cy="50" r="1" class="svg-elem-5"></circle><circle style="fill: rgb(255, 255, 255);" cx="43" cy="50" r="1" class="svg-elem-6"></circle><circle style="fill: rgb(255, 255, 255);" cx="52" cy="26" r="1" class="svg-elem-7"></circle></svg>
